<?xml version="1.0" standalone="no"?>
<!DOCTYPE svg PUBLIC "-//W3C//DTD SVG 20010904//EN"
 "http://www.w3.org/TR/2001/REC-SVG-20010904/DTD/svg10.dtd">
<svg version="1.0" xmlns="http://www.w3.org/2000/svg"
 width="512.000000pt" height="512.000000pt" viewBox="0 0 512.000000 512.000000"
 preserveAspectRatio="xMidYMid meet">
<metadata>
Created by potrace 1.14, written by Peter Selinger 2001-2017
</metadata>
<g transform="translate(0.000000,512.000000) scale(0.100000,-0.100000)"
fill="#000000" stroke="none">
<path d="M2509 4801 c-32 -10 -324 -118 -359 -133 -14 -5 -101 -38 -195 -73
-93 -35 -395 -147 -670 -250 -275 -103 -615 -230 -755 -282 -140 -52 -293
-108 -340 -126 -112 -41 -153 -68 -174 -110 -15 -33 -16 -166 -14 -1729 l3
-1693 25 -33 c27 -36 76 -62 119 -62 56 0 127 53 141 104 5 17 10 12 33 -27
44 -75 113 -95 194 -56 46 22 83 79 83 126 0 13 -67 227 -150 476 l-150 453 0
1078 c0 858 3 1077 13 1074 6 -3 143 -54 304 -114 l292 -108 3 -576 3 -575 39
-79 c91 -189 323 -345 666 -447 105 -31 232 -61 320 -75 19 -3 42 -7 50 -9 8
-2 38 -7 66 -10 28 -3 59 -7 70 -9 105 -20 604 -29 754 -13 41 4 94 9 116 12
435 45 858 202 1056 391 73 70 142 187 157 267 0 4 1 258 1 565 l0 557 323
119 c177 65 342 127 367 136 25 10 71 28 103 40 92 36 136 118 108 203 -23 68
-6 61 -721 327 -107 39 -550 205 -985 368 -434 162 -808 296 -830 298 -22 2
-52 -1 -66 -5z"/>
</g>
</svg>
